<?xml version="1.0" encoding="UTF-8" standalone="no"?><!DOCTYPE svg PUBLIC "-//W3C//DTD SVG 1.1//EN" "http://www.w3.org/Graphics/SVG/1.1/DTD/svg11.dtd"><svg width="100%" height="100%" viewBox="0 0 3492 871" version="1.1" xmlns="http://www.w3.org/2000/svg" xmlns:xlink="http://www.w3.org/1999/xlink" xml:space="preserve" xmlns:serif="http://www.serif.com/" style="fill-rule:evenodd;clip-rule:evenodd;stroke-linejoin:round;stroke-miterlimit:2;"><g><text x="787.346px" y="775.954px" style="font-family:'JetBrainsMono-Regular', 'JetBrains Mono', monospace;font-size:779.013px;fill:#fff;">Jordy</text><g><path d="M630.175,503.717c13.767,15.816 20.275,35.658 21.733,56.37c0.855,11.771 0.417,23.575 -0.537,35.33c-0.883,10.833 -2.917,21.787 -3.125,32.691c9.479,-11.825 14.933,-25.954 17.658,-40.904c3.109,-17.067 2.5,-34.583 1.892,-51.821c-0.263,-7.187 -0.208,-14.775 -2.9,-21.562c-2.588,-6.563 -8.383,-11.009 -14.15,-14.742c-10.817,-7.012 -22.983,-11.371 -34.529,-16.979c-4.688,-2.292 -9.792,-4.896 -14.479,-8.038c8.366,10.73 19.67,19.6 28.437,29.655Z" style="fill:#fff;fill-rule:nonzero;"/><path d="M520.85,614.079c-0.417,-1.404 -0.954,-2.879 -1.475,-4.408c-4.704,26.892 -8.229,53.942 -9.758,81.233c0.625,-0.558 1.233,-1.146 1.825,-1.737c2.846,-2.863 5.362,-5.971 7.483,-9.409c4.567,-7.466 7.013,-16.079 7.742,-24.758c0.783,-9.2 -0.104,-18.421 -2.154,-27.396c-1.042,-4.55 -2.309,-9.046 -3.663,-13.525Z" style="fill:#fff;fill-rule:nonzero;"/><path d="M403.404,494.896c2.117,-13.542 11.65,-25.225 19.496,-36.008c14.808,-20.363 32.363,-39.705 55.033,-51.421c24.046,-12.413 51.184,-15.679 77.709,-18.613c0.312,-0.033 0.625,-0.033 0.937,0c0.729,-6.058 2.379,-11.996 4.896,-17.55c-0.729,0.017 -1.442,0.017 -2.133,0.034c-3.371,0.033 -6.738,-0.105 -10.088,-0.263c-6.2,-0.292 -12.396,-0.708 -18.612,-1.075c-5.85,-0.346 -11.755,-2.308 -17.588,-2.221c-2.621,0.05 -5.483,-0.071 -8,0.659c-2.746,0.8 -5.417,1.841 -8.092,2.883c-1.512,0.571 -2.187,-1.667 -1.025,-2.467c2.38,-1.633 4.984,-2.796 7.725,-3.646c2.934,-0.921 5.663,-2.154 8.646,-2.829c5.85,-1.354 11.267,-3.212 17.363,-3.125c6.529,0.071 13.091,0.8 19.583,1.371c0.817,0.071 1.65,0.138 2.467,0.225c-18.025,-10.504 -35.921,-21.212 -53.442,-32.533c-39.271,-25.384 -76.771,-54.392 -107.029,-90.263c-14.046,-16.629 -26.458,-34.458 -36.787,-53.625c-10.175,-18.908 -19.567,-38.421 -24.496,-59.429c-0.504,-2.171 2.654,-3.021 3.333,-0.921c6.579,20.246 14.529,39.829 25.45,58.021c8.679,-13.992 19.704,-26.196 32.588,-36.337c-7.934,-9.375 -16.617,-18.088 -25.488,-26.563c-18.142,-17.292 -37.012,-33.854 -52.292,-53.854c-7.116,-9.321 -13.366,-19.304 -18.054,-30.083c-1.683,-3.821 -3.3,-7.867 -4.583,-12.017c-3.475,14.742 -6.771,29.517 -9.446,44.412c-6.579,36.7 -8.508,73.871 -11.008,111.005c-2.046,30.312 -4.113,60.625 -6.196,90.937c8.454,-10.087 19.704,-17.796 32.429,-21.546c0.663,-8.921 1.6,-17.829 2.538,-26.716c1.525,-14.288 3.087,-28.7 3.383,-43.055c0.296,-14.291 -0.379,-28.579 -1.579,-42.812c-0.175,-2.033 3.091,-2.417 3.541,-0.471c3.454,15.433 4.08,31.304 3.992,47.083c-0.083,15.642 -0.121,31.267 -0.746,46.892c-1.108,27.9 -1.421,55.746 1.146,83.596c2.517,27.275 7.187,54.304 13.246,81.004c3.021,13.283 6.392,26.479 10.017,39.604c1.858,6.771 3.804,13.504 5.799,20.242c1.705,5.712 3.405,11.492 6.355,16.7c0.433,0.767 0.887,1.512 1.37,2.242c1.113,-2.796 2.659,-5.521 4.288,-8.005c1.946,-2.95 4.358,-5.345 6.688,-7.987c2.254,-2.533 4.304,-5.275 6.404,-7.95c4.358,-5.538 8.821,-10.8 13.804,-15.763c2.237,-2.225 4.479,-4.566 6.979,-6.512c2.708,-2.1 5.208,-4.288 8.525,-5.279c1.421,-0.434 2.688,1.25 1.925,2.521c-1.633,2.708 -3.958,4.562 -6.042,6.908c-2.154,2.412 -4.512,4.671 -6.579,7.171c-4.046,4.858 -7.9,9.983 -11.596,15.137c-1.895,2.638 -3.666,5.367 -5.416,8.109c-1.65,2.57 -2.867,5.362 -4.55,7.916c-1.738,2.654 -3.454,5.279 -4.863,8.142c-0.433,0.887 -0.8,1.929 -1.196,2.987c0.155,0.05 0.313,0.121 0.484,0.171c4.604,1.6 9.671,1.667 14.446,2.484c6.595,1.129 13.02,3.108 19.27,5.487c3.388,1.283 6.738,2.692 10.034,4.183c1.841,0.834 3.475,1.755 5.037,2.813Z" style="fill:#fff;fill-rule:nonzero;"/><path d="M466.217,675.538c0.658,-3.542 1.37,-7.067 2.083,-10.588c-1.721,1.542 -3.663,3.054 -5.746,3.992c1.125,2.237 2.342,4.446 3.663,6.596Z" style="fill:#fff;fill-rule:nonzero;"/><path d="M418.838,708.646c-3.421,1.875 -6.492,4.2 -9.255,6.946c-5.554,5.52 -10.12,12.166 -12.429,19.721c-2.708,8.941 -2.708,18.558 -0.696,27.637c1.025,4.671 2.275,9.308 4.013,13.767c1.666,4.291 4.65,8.475 5.604,12.971c0.417,1.924 -1.75,4.2 -3.663,2.829c-3.783,-2.759 -6.145,-7.5 -8.191,-11.613c-0.088,-0.158 -0.159,-0.333 -0.246,-0.504c-0.017,0.067 -0.033,0.138 -0.05,0.192c-0.592,2.116 -1.217,4.2 -1.825,6.283c-0.379,1.25 -0.608,3.021 -1.146,4.375c0.538,0.313 1.096,0.746 1.546,1.008c1.683,0.971 3.35,1.942 5.017,2.95c3.179,1.892 6.37,3.767 9.583,5.592c10.104,5.746 20.504,10.971 31.079,15.817c-1.096,-2.938 -1.479,-6.096 -1.687,-9.205c-0.434,-6.891 -0.242,-14.008 0.383,-20.866c0.346,-3.629 0.867,-7.259 1.754,-10.784c0.45,-1.77 0.988,-3.504 1.633,-5.187c0.209,-0.558 1.75,-3.525 1.734,-3.542c-0.192,-0.766 -3.629,-2.466 -4.338,-2.987c-1.458,-1.096 -2.9,-2.221 -4.291,-3.404c-0.938,-0.796 -1.805,-1.65 -2.638,-2.517c-0.033,0.175 -0.087,0.346 -0.121,0.521c-1.162,5.625 -1.721,11.458 -2.308,17.154c-0.296,2.95 -4.429,3.021 -4.638,-0c-0.45,-6.771 0.088,-13.038 0.871,-19.758c0.379,-3.35 0.521,-6.459 1.646,-9.688c1.042,-2.966 2.467,-5.85 4.204,-8.487c3.609,-5.455 8.438,-9.88 14.15,-13.075c2.084,-1.179 4.25,-2.221 6.492,-3.092c-7.796,-5.588 -15.417,-11.475 -22.308,-18.125c-3.35,1.442 -6.705,3.333 -9.88,5.071Z" style="fill:#fff;fill-rule:nonzero;"/><path d="M560.138,641.475c0.141,0.175 0.262,0.367 0.383,0.575c0.383,0.379 0.783,0.779 1.162,1.163c4.167,4.166 8.613,8.229 13.613,11.354c5.087,3.175 10.904,4.55 16.841,4.895c3.142,0.192 6.284,0.105 9.409,-0.087c1.267,-0.087 2.846,0.017 4.271,-0.225c-0.867,-3.371 -1.634,-6.754 -2.309,-10.142c-1.025,-5 -1.825,-10.05 -2.5,-15.12c-2.137,1.408 -4.725,2.308 -7.154,2.691c-6.529,1.025 -14.029,-0.466 -20.346,-2.308c-5.416,-1.579 -10.591,-4.617 -14.687,-8.508c-3.767,-3.592 -7.467,-8.35 -7.433,-13.767c-0,-1.508 7.483,9.221 10.608,12.154c0.887,0.833 1.787,1.579 2.746,2.238c-0.192,-1.667 0.312,-6.613 0.483,-8.296c0.208,-1.875 0.4,-4.204 1.217,-5.921c0.016,-0.313 0.05,-0.538 0.087,-0.696c-0.366,-0.225 -0.729,-0.45 -1.079,-0.696c-0.937,-0.587 -1.875,-1.196 -2.792,-1.787c-3.595,-2.309 -7.5,-4.442 -10.541,-7.5c-1.075,-1.075 -2.254,-2.379 -3.209,-3.8c-1.129,4.287 -2.812,8.471 -3.525,12.9c-0.904,5.571 -0.745,11.283 0.017,16.875c0.033,0.171 0.071,0.346 0.087,0.537c0.73,-0.504 1.875,-0.521 2.55,0.379c3.284,4.255 6.892,8.042 10.625,11.809c0.576,0.346 1.096,0.762 1.476,1.283Z" style="fill:#fff;fill-rule:nonzero;"/><path d="M745.158,642.396c-1.495,-3.196 -3.179,-6.283 -4.791,-9.425c-0.921,-1.808 -2.396,-4.254 -2.779,-6.563c-0.992,-0.766 -1.634,-2.016 -1.634,-3.195c0,-2.225 1.809,-3.805 3.925,-3.942c1.059,-0.071 2.134,-0.05 3.229,0.033c-0.07,-0.171 -0.141,-0.346 -0.225,-0.537c-0.816,-1.963 -1.65,-3.921 -2.52,-5.867c-1.717,-3.837 -3.625,-7.571 -5.709,-11.233c-2.104,-3.679 -4.446,-7.204 -6.791,-10.729c-0.275,-0.417 -0.555,-0.834 -0.85,-1.25c-0.155,2.62 -0.555,5.241 -1.042,7.758c-1.3,6.792 -3.263,13.562 -5.796,20c-2.571,6.479 -5.592,12.779 -9.429,18.596c-2.758,4.2 -5.988,8.837 -9.879,12.341c2.987,1.825 5.471,5.625 6.825,8.405c0.712,1.475 1.596,3.716 1.837,5.87c3.075,-3.42 5.334,-7.554 6.321,-12.241c0.433,-2.1 3.575,-1.196 3.196,0.887c-3.558,19.842 -25.433,31.125 -44.133,25.571c-8.63,-2.571 -16.113,-8.037 -21.613,-15.104c-6.2,-7.917 -9.029,-16.788 -10.679,-26.579c-2.013,-11.859 -0.521,-24.046 0.366,-35.921c0.917,-12.467 1.421,-25.088 0.017,-37.533c-1.217,-10.8 -3.787,-21.771 -8.212,-31.738c-4.096,-9.237 -9.93,-17.258 -16.788,-24.617c-9.808,-10.52 -21.025,-20.487 -26.6,-33.558c0.504,4.079 1.633,8.071 2.417,12.188c1.004,5.466 4.912,10.05 8.366,14.2c1.267,1.508 -0.329,3.887 -2.187,2.829c-4.721,-2.709 -8.838,-7.413 -11.425,-12.188c-1.371,-2.516 -3.054,-4.633 -3.75,-7.483c-0.675,-2.829 -0.833,-5.625 -0.467,-8.504c0.434,-3.438 0.538,-6.875 1.163,-10.279c0.362,-2.034 0.8,-4.063 1.112,-6.113c0,-0.242 0.034,-0.483 0.104,-0.712c0.138,-1.021 0.242,-2.063 0.275,-3.105c0.225,-5.8 -1.058,-11.633 -3.541,-16.875c-0.692,-1.458 0.937,-2.641 2.171,-1.666c1.65,1.316 2.883,2.879 3.783,4.583c0.575,-0.542 1.2,-1.062 1.896,-1.583c1.646,-1.229 4.304,-2.479 4.962,-4.6c0.904,-2.917 -1.612,-6.196 -2.879,-8.592c-1.529,-2.933 -2.642,-6.025 -3.492,-9.221c-0.883,-3.316 -1.545,-6.683 -2.708,-9.929c-0.275,-0.746 -0.571,-1.475 -0.921,-2.204c-0.104,-0.208 -0.483,-0.729 -0.658,-1.058c-0.362,0.066 -0.954,0.12 -1.146,0.154c-0.783,0.191 -1.546,0.487 -2.308,0.762c-2.779,1.025 -6.7,2.346 -10.054,2.017c1.875,4.842 3.108,9.512 1.6,14.808c-0.35,1.196 -2.467,1.425 -2.659,0c-0.762,-5.383 -3.212,-10 -7.116,-13.679c-1.475,-1.392 -3.559,-3.317 -5.209,-5.454c-0.329,-0.192 -0.641,-0.4 -0.937,-0.642c-0.659,0.296 -1.388,0.488 -2.154,0.554c-11.65,1.305 -23.296,2.659 -34.792,4.934c2.05,0.833 4.029,1.875 5.729,3.108c3.004,2.167 5.038,4.946 7.1,7.846c7.1,-2.171 14.967,-0.729 20.454,4.408c6.163,5.767 7.95,15.246 7.588,23.371c-0.088,1.925 -3.004,2.463 -3.475,0.467c-0.746,-3.213 -1.634,-6.442 -2.879,-9.496c-1.167,-2.796 -3.355,-5.538 -5.35,-7.813c-3.734,-4.254 -10.313,-8.454 -16.025,-5.97c-0.9,0.379 -2.221,0.52 -2.934,-0.384c-2.275,-2.9 -5.816,-4.566 -8.991,-6.216c-3.159,-1.65 -6.338,-2.742 -9.83,-3.438c-3.416,-0.675 -7.045,-0.692 -10.483,-0.154c-2.067,0.329 -4.446,1.25 -6.7,1.421c-5.262,1.979 -10.367,4.308 -15.262,7.104c-10.034,5.729 -18.855,13.071 -27.013,21.212c-8.354,8.334 -15.871,17.434 -23.075,26.788c-7.429,9.671 -14.929,19.479 -19.55,30.871c-0.396,1.004 -1.058,1.821 -1.925,2.254c0,0.054 0,0.104 -0.017,0.158c0.45,0.571 0.867,1.146 1.284,1.717c1.512,2.121 2.846,4.375 3.975,6.721c2.241,4.616 3.837,9.512 4.671,14.583c1.475,9.008 1.145,19.863 -3.109,28.333c1.563,1.546 3.163,3.28 4.517,5.155c2.204,-4.338 4.304,-8.73 5.9,-13.35c1.271,-3.592 2.329,-7.325 2.937,-11.109c0.555,-3.541 0.467,-7.121 0.9,-10.662c0.28,-2.359 3.317,-2.9 4.167,-0.571c2.604,7.171 0.679,16.075 -1.508,23.142c-2.292,7.412 -5.454,14.55 -8.684,21.595c0.071,1.217 -0.066,2.434 -0.416,3.663c-0.296,0.975 -1.146,1.667 -2.084,1.962c-5.295,12.346 -9.095,24.913 -10.762,38.388c-1.771,14.375 -1.2,29.046 2.533,43.071c3.579,13.437 10.104,25.816 19.479,36.129c8.734,9.583 19.063,17.483 29.375,25.296c0.296,-8.925 1.305,-17.867 2.709,-26.771c-0.225,-0.225 -0.434,-0.45 -0.609,-0.713c-5.675,-7.987 -10.312,-16.441 -13.662,-25.658c-5.971,-16.392 -6.788,-33.283 -3.229,-50.279c3.387,-16.179 9.966,-32.05 20.558,-44.842c1.683,-2.033 5.171,0.708 3.646,2.813c-11.721,16.041 -19.029,34.183 -18.821,54.095c0.242,-0.191 0.504,-0.383 0.729,-0.575c2.621,-2.045 5.4,-3.816 8.388,-5.258c3.158,-1.512 6.454,-2.708 9.858,-3.508c2.138,-0.504 4.429,-1.092 6.65,-1.042c1.042,-9.233 1.617,-18.504 1.546,-27.812c-0.071,-9.234 -0.625,-18.609 -2.225,-27.709c-0.779,-4.512 -1.979,-8.975 -3.542,-13.279c-1.579,-4.308 -3.816,-8.371 -4.583,-12.9c-0.275,-1.7 1.721,-3.246 3.108,-1.804c3.492,3.625 5.104,8.542 6.667,13.262c1.6,4.825 3.021,9.705 4.271,14.617c2.516,9.95 3.733,20.054 3.941,30.296c0.784,39.117 -11.908,76.962 -15.779,115.608c-1.721,17.188 -1.929,34.967 3.471,51.546c2.604,8.004 6.563,15.883 11.667,22.604c2.675,3.525 5.537,6.963 8.783,9.963c3.25,2.987 6.721,5.679 9.95,8.666c2.046,1.875 -0.575,4.842 -2.829,3.663c-4.413,-2.292 -8.333,-5.454 -12.017,-8.767c-0.883,-0.8 -1.771,-1.6 -2.637,-2.416c-0.175,5.75 -2.242,11.65 -4.704,16.858c6.82,4.846 11.666,11.979 17.566,17.812c6.546,6.475 14.084,11.93 22.417,15.834c8.437,3.925 17.742,6.041 27.029,5.937c7.517,-0.087 14.342,-1.771 21.058,-4.408c-3.695,-1.683 -7.029,-4.342 -9.825,-7.171c-4.966,-5.05 -8.35,-11.146 -10.658,-17.796c-4.792,-13.887 -5.071,-28.695 -6.321,-43.212c-7.866,3.371 -17.829,3.996 -25.225,-0.242c2.83,7.725 5.363,15.4 9.255,22.725c0.987,1.859 -1.601,3.3 -2.78,1.617c-5.537,-7.796 -11.041,-15.8 -14.721,-24.688c-3.629,-8.82 -7.57,-17.866 -9.358,-27.291c-3.437,-18.092 -2.554,-36.634 -0.887,-54.863c1.704,-18.612 4.012,-37.204 6.787,-55.696c2.746,-18.262 6.25,-36.42 10.592,-54.375c2.204,-9.166 4.583,-18.279 7.083,-27.358c2.413,-8.683 4.638,-17.642 8.992,-25.592c0.75,-1.354 3.146,-0.8 3.004,0.817c-0.833,10.087 -4.062,19.879 -6.458,29.671c-0.713,2.916 -1.404,5.833 -2.067,8.733c0.663,-0.471 1.321,-0.904 1.963,-1.304c5.816,-3.592 12.05,-6.633 18.475,-9.008c11.629,-4.309 24.512,-5.938 36.562,-2.796c-2.692,-5.088 -5.696,-10.017 -8.837,-14.638c-6.65,-9.775 -15.105,-16.995 -24.446,-24.062c-1.946,-1.475 -0.329,-4.2 1.891,-3.246c10.8,4.583 19.255,14.429 26.096,23.663c7.379,9.95 13.713,20.783 18.8,32.066c5.313,11.788 6.771,24.479 8.509,37.171c1.77,12.829 3.125,25.779 5.762,38.471c4.533,21.946 13.142,45.071 29.896,60.662c15.142,14.042 35.887,19.896 55.712,12.967c4.792,-1.667 9.43,-4.167 13.63,-6.996c4.6,-3.108 7.55,-7.675 10.295,-12.379c5.78,-9.946 6.459,-20.883 4.963,-32.083c-0.258,-1.98 2.883,-2.259 3.387,-0.45c0.955,3.487 1.425,7.187 1.475,10.937c1.513,-1.6 3.213,-3.058 4.809,-4.308c2.204,-1.7 4.583,-3.175 7.121,-4.392c1.316,-0.625 2.791,-1.404 4.287,-1.804c-0.142,-0.712 -0.104,-1.475 0.017,-2.154c1.216,-6.838 -0.488,-13.4 -3.388,-19.6l0.004,-0Zm-194.441,-193.717c-2.554,0.038 -5.104,-0.45 -7.5,-1.3c-2.013,0.85 -4.221,0.625 -6.354,1.146c-2.205,0.521 -4.325,1.3 -6.459,2.067c-4.15,1.491 -8.629,2.187 -12.866,0.691c-3.575,-1.266 -7.03,-4.583 -8.784,-7.916c-1.196,-2.254 -2.654,-6.509 -1.546,-9.217c-1.283,0.296 -2.55,0.608 -3.8,0.921c-3.125,0.796 -6.112,2.604 -9.27,3.087c-1.6,0.246 -2.555,-1.7 -1.13,-2.637c2.9,-1.925 6.58,-2.604 9.634,-4.321c2.625,-1.458 5.191,-3.042 7.833,-4.479c5.121,-2.779 11.996,-4.117 17.238,-0.854c4.254,2.658 7.066,7.104 9.929,11.096c3.387,4.687 8.004,7.291 13.437,9.008c1.479,0.454 1.2,2.675 -0.362,2.708Z" style="fill:#fff;fill-rule:nonzero;"/><path d="M610.158,731.875c-2.187,-2.067 -4.133,-4.408 -5.8,-6.892c-1.129,-1.666 -2.225,-3.541 -3.162,-5.537c-0.104,0.296 -0.208,0.604 -0.313,0.9c-0.137,0.367 -0.379,0.662 -0.675,0.871c0.192,0.225 0.313,0.537 0.33,0.9c0.158,2.45 0.174,4.896 0.054,7.346c-0.105,1.995 -2.988,1.995 -3.092,-0c-0.137,-2.45 -0.121,-4.896 0.033,-7.346c0.038,-0.346 0.142,-0.642 0.296,-0.867c-0.362,-0.296 -0.608,-0.746 -0.591,-1.408c0.07,-2.725 0.645,-5.313 1.095,-8c0.088,-0.559 0.155,-1.113 0.225,-1.667c-0.05,-0.712 -0.07,-1.408 -0.016,-2.104c0.016,-0.554 0.154,-1.042 0.346,-1.475c0.07,-0.867 0.141,-1.733 0.225,-2.588c0.399,-4.287 1.425,-8.437 2.641,-12.566c1.7,-5.679 4.288,-12.517 8.696,-17.084c-1.196,-3.3 -2.275,-6.65 -3.229,-10.016c-3.334,1.125 -7.692,1.316 -9.634,1.562c-1.562,0.209 -3.125,0.379 -4.687,0.484c-0,0.208 -0.038,0.416 -0.104,0.625c-0.938,2.812 -2.659,5.295 -3.788,8.02c-1.004,2.5 -1.804,5.088 -2.583,7.675c-1.771,5.85 -3.3,11.842 -4.046,17.917c-0.8,6.442 -0.016,12.238 1.821,18.438c1.704,5.712 4.704,11.162 5.992,16.945c0.571,2.584 -2.659,3.767 -4.134,1.734c-1.995,-2.796 -3.245,-6.025 -4.583,-9.184c-0.258,-0.608 -0.521,-1.216 -0.779,-1.82c-0.663,1.595 -1.442,3.158 -2.242,4.633c-1.492,2.742 -3.404,6.267 -5.762,8.333c-0.017,0.017 -0.038,0.034 -0.055,0.054c0.33,0.467 0.73,1.042 0.784,1.109c0.987,1.337 1.996,2.691 2.983,4.029c1.792,2.429 3.596,4.825 5.488,7.187c6.354,7.988 13.387,15.4 21.77,21.13c0.642,-11.355 4.375,-22.33 6.996,-33.371c0.384,-1.646 1.267,-3.834 1.2,-5.521c-0.071,-1.283 -0.712,-1.525 -1.704,-2.446l0.004,0Z" style="fill:#fff;fill-rule:nonzero;"/></g></g><text x="164.657px" y="670.818px" style="font-family:'Arial-BoldMT', 'Arial', sans-serif;font-weight:700;font-size:156.831px;fill:#fff;">&lt;/&gt;</text></svg>